<mxfile host="app.diagrams.net" modified="2021-04-18T13:29:33.832Z" agent="5.0 (Macintosh; Intel Mac OS X 11_2_3) AppleWebKit/537.36 (KHTML, like Gecko) Chrome/89.0.4372.0 Safari/537.36 Edg/89.0.752.0" etag="u5YVbQtJDiqDFKMgeGnJ" version="14.6.1" type="github">
  <diagram id="M8RPj7k-qfqEGwKP3plZ" name="Page-1">
    <mxGraphModel dx="1426" dy="711" grid="0" gridSize="10" guides="1" tooltips="1" connect="1" arrows="1" fold="1" page="1" pageScale="1" pageWidth="850" pageHeight="1100" math="0" shadow="0">
      <root>
        <mxCell id="0" />
        <mxCell id="1" parent="0" />
        <mxCell id="dz5P-nzMmgTRwihwBF86-10" value="UI" style="rounded=0;whiteSpace=wrap;html=1;" vertex="1" parent="1">
          <mxGeometry x="700" y="248" width="76" height="424" as="geometry" />
        </mxCell>
        <mxCell id="dz5P-nzMmgTRwihwBF86-14" value="" style="verticalLabelPosition=bottom;verticalAlign=top;html=1;strokeWidth=2;shape=mxgraph.arrows2.arrow;dy=0.74;dx=17;notch=0;" vertex="1" parent="1">
          <mxGeometry x="61" y="94" width="704" height="21" as="geometry" />
        </mxCell>
        <mxCell id="dz5P-nzMmgTRwihwBF86-30" value="&lt;h2&gt;&lt;font color=&quot;#050505&quot;&gt;time&lt;/font&gt;&lt;/h2&gt;" style="text;html=1;strokeColor=none;fillColor=none;align=center;verticalAlign=middle;whiteSpace=wrap;rounded=0;fontColor=#FF3333;" vertex="1" parent="1">
          <mxGeometry x="378" y="65" width="78" height="38" as="geometry" />
        </mxCell>
        <mxCell id="dz5P-nzMmgTRwihwBF86-45" value="" style="group" vertex="1" connectable="0" parent="1">
          <mxGeometry x="57" y="203" width="620" height="248" as="geometry" />
        </mxCell>
        <mxCell id="dz5P-nzMmgTRwihwBF86-37" value="" style="rounded=0;whiteSpace=wrap;html=1;fontColor=#FF3333;dashed=1;strokeColor=#3399FF;" vertex="1" parent="dz5P-nzMmgTRwihwBF86-45">
          <mxGeometry y="20" width="596" height="228" as="geometry" />
        </mxCell>
        <mxCell id="dz5P-nzMmgTRwihwBF86-6" value="Pull Data" style="rounded=0;whiteSpace=wrap;html=1;" vertex="1" parent="dz5P-nzMmgTRwihwBF86-45">
          <mxGeometry x="8" y="144" width="76" height="40" as="geometry" />
        </mxCell>
        <mxCell id="dz5P-nzMmgTRwihwBF86-12" value="" style="shape=curlyBracket;whiteSpace=wrap;html=1;rounded=1;" vertex="1" parent="dz5P-nzMmgTRwihwBF86-45">
          <mxGeometry x="86" y="78" width="20" height="166" as="geometry" />
        </mxCell>
        <mxCell id="dz5P-nzMmgTRwihwBF86-16" value="broadcast message" style="rounded=0;whiteSpace=wrap;html=1;" vertex="1" parent="dz5P-nzMmgTRwihwBF86-45">
          <mxGeometry x="206" y="59" width="136" height="37" as="geometry" />
        </mxCell>
        <mxCell id="dz5P-nzMmgTRwihwBF86-19" value="" style="endArrow=classic;html=1;dashed=1;exitX=1;exitY=0.5;exitDx=0;exitDy=0;" edge="1" parent="dz5P-nzMmgTRwihwBF86-45" source="dz5P-nzMmgTRwihwBF86-16">
          <mxGeometry width="50" height="50" relative="1" as="geometry">
            <mxPoint x="384" y="80" as="sourcePoint" />
            <mxPoint x="620" y="80" as="targetPoint" />
          </mxGeometry>
        </mxCell>
        <mxCell id="dz5P-nzMmgTRwihwBF86-21" value="" style="endArrow=none;html=1;entryX=0;entryY=0.5;entryDx=0;entryDy=0;" edge="1" parent="dz5P-nzMmgTRwihwBF86-45" target="dz5P-nzMmgTRwihwBF86-16">
          <mxGeometry width="50" height="50" relative="1" as="geometry">
            <mxPoint x="104" y="78" as="sourcePoint" />
            <mxPoint x="220" y="66" as="targetPoint" />
          </mxGeometry>
        </mxCell>
        <mxCell id="dz5P-nzMmgTRwihwBF86-31" value="" style="endArrow=classic;html=1;fontColor=#FF3333;exitX=0.6;exitY=0.518;exitDx=0;exitDy=0;exitPerimeter=0;" edge="1" parent="dz5P-nzMmgTRwihwBF86-45" source="dz5P-nzMmgTRwihwBF86-12">
          <mxGeometry width="50" height="50" relative="1" as="geometry">
            <mxPoint x="361" y="281" as="sourcePoint" />
            <mxPoint x="614" y="171" as="targetPoint" />
          </mxGeometry>
        </mxCell>
        <mxCell id="dz5P-nzMmgTRwihwBF86-29" value="&lt;font color=&quot;#000000&quot;&gt;update event list&lt;/font&gt;" style="rounded=0;whiteSpace=wrap;html=1;fontColor=#FF3333;" vertex="1" parent="dz5P-nzMmgTRwihwBF86-45">
          <mxGeometry x="139" y="144" width="106" height="42" as="geometry" />
        </mxCell>
        <mxCell id="dz5P-nzMmgTRwihwBF86-42" value="&lt;h3&gt;&lt;font color=&quot;#3399ff&quot;&gt;Timer&lt;/font&gt;&lt;/h3&gt;" style="text;html=1;strokeColor=none;fillColor=none;align=center;verticalAlign=middle;whiteSpace=wrap;rounded=0;dashed=1;fontColor=#FF3333;" vertex="1" parent="dz5P-nzMmgTRwihwBF86-45">
          <mxGeometry width="40" height="20" as="geometry" />
        </mxCell>
        <mxCell id="dz5P-nzMmgTRwihwBF86-46" value="" style="group" vertex="1" connectable="0" parent="1">
          <mxGeometry x="58" y="476" width="622" height="248" as="geometry" />
        </mxCell>
        <mxCell id="dz5P-nzMmgTRwihwBF86-40" value="" style="group" vertex="1" connectable="0" parent="dz5P-nzMmgTRwihwBF86-46">
          <mxGeometry y="20" width="622" height="228" as="geometry" />
        </mxCell>
        <mxCell id="dz5P-nzMmgTRwihwBF86-38" value="" style="rounded=0;whiteSpace=wrap;html=1;fontColor=#FF3333;dashed=1;strokeColor=#00CC00;" vertex="1" parent="dz5P-nzMmgTRwihwBF86-40">
          <mxGeometry width="594" height="228" as="geometry" />
        </mxCell>
        <mxCell id="dz5P-nzMmgTRwihwBF86-23" value="" style="endArrow=classic;html=1;exitX=0.85;exitY=0.003;exitDx=0;exitDy=0;exitPerimeter=0;" edge="1" parent="dz5P-nzMmgTRwihwBF86-40" source="dz5P-nzMmgTRwihwBF86-13">
          <mxGeometry width="50" height="50" relative="1" as="geometry">
            <mxPoint x="360" y="54" as="sourcePoint" />
            <mxPoint x="622" y="36" as="targetPoint" />
          </mxGeometry>
        </mxCell>
        <mxCell id="dz5P-nzMmgTRwihwBF86-7" value="Push Data" style="rounded=0;whiteSpace=wrap;html=1;" vertex="1" parent="dz5P-nzMmgTRwihwBF86-40">
          <mxGeometry x="7" y="91" width="72" height="41" as="geometry" />
        </mxCell>
        <mxCell id="dz5P-nzMmgTRwihwBF86-13" value="" style="shape=curlyBracket;whiteSpace=wrap;html=1;rounded=1;" vertex="1" parent="dz5P-nzMmgTRwihwBF86-40">
          <mxGeometry x="78" y="28.5" width="26" height="166" as="geometry" />
        </mxCell>
        <mxCell id="dz5P-nzMmgTRwihwBF86-15" value="broadcast message" style="rounded=0;whiteSpace=wrap;html=1;" vertex="1" parent="dz5P-nzMmgTRwihwBF86-40">
          <mxGeometry x="157" y="13" width="120" height="37" as="geometry" />
        </mxCell>
        <mxCell id="dz5P-nzMmgTRwihwBF86-32" value="" style="endArrow=classic;html=1;fontColor=#FF3333;exitX=0.615;exitY=0.617;exitDx=0;exitDy=0;exitPerimeter=0;" edge="1" parent="dz5P-nzMmgTRwihwBF86-40" source="dz5P-nzMmgTRwihwBF86-13">
          <mxGeometry width="50" height="50" relative="1" as="geometry">
            <mxPoint x="105" y="131.99800000000005" as="sourcePoint" />
            <mxPoint x="621" y="139.01" as="targetPoint" />
          </mxGeometry>
        </mxCell>
        <mxCell id="dz5P-nzMmgTRwihwBF86-33" value="&lt;font color=&quot;#000000&quot;&gt;update weather&lt;/font&gt;" style="rounded=0;whiteSpace=wrap;html=1;fontColor=#FF3333;" vertex="1" parent="dz5P-nzMmgTRwihwBF86-40">
          <mxGeometry x="196" y="112" width="106" height="42" as="geometry" />
        </mxCell>
        <mxCell id="dz5P-nzMmgTRwihwBF86-41" value="&lt;h3&gt;&lt;font color=&quot;#4d9900&quot;&gt;Socket&lt;/font&gt;&lt;/h3&gt;" style="text;html=1;strokeColor=none;fillColor=none;align=center;verticalAlign=middle;whiteSpace=wrap;rounded=0;dashed=1;fontColor=#FF3333;" vertex="1" parent="dz5P-nzMmgTRwihwBF86-46">
          <mxGeometry width="40" height="20" as="geometry" />
        </mxCell>
        <mxCell id="dz5P-nzMmgTRwihwBF86-26" value="" style="endArrow=classic;html=1;exitX=0.75;exitY=0;exitDx=0;exitDy=0;" edge="1" parent="1" source="dz5P-nzMmgTRwihwBF86-15">
          <mxGeometry relative="1" as="geometry">
            <mxPoint x="374" y="351" as="sourcePoint" />
            <mxPoint x="485" y="282" as="targetPoint" />
            <Array as="points" />
          </mxGeometry>
        </mxCell>
        <mxCell id="dz5P-nzMmgTRwihwBF86-27" value="cancel pull" style="edgeLabel;resizable=0;html=1;align=center;verticalAlign=middle;fontColor=#FF3333;" connectable="0" vertex="1" parent="dz5P-nzMmgTRwihwBF86-26">
          <mxGeometry relative="1" as="geometry">
            <mxPoint x="-31" y="33" as="offset" />
          </mxGeometry>
        </mxCell>
      </root>
    </mxGraphModel>
  </diagram>
</mxfile>
